<svg xmlns="http://www.w3.org/2000/svg" xmlns:xlink="http://www.w3.org/1999/xlink" width="50" height="50" viewBox="0 0 310 310">
    <defs>
        <path id="a" d="M116.943 141.834c-9.284 0-16.75 5.185-16.75 16.79 0 11.361 7.482 16.758 16.766 16.758 9.284 0 16.75-5.413 16.75-16.75-.017-11.613-7.507-16.798-16.766-16.798zm0 25.546c-4.147 0-7.263-3.156-7.263-8.788 0-6.127 3.116-8.805 7.263-8.805s7.247 2.678 7.247 8.805c0 5.664-3.117 8.82-7.247 8.82v-.032zm60.385-25.254a.308.308 0 0 0 .316.308h7.052c.557 0 1.01.45 1.015 1.007v6.11c0 .17-.138.309-.309.309h-7.758a.308.308 0 0 0-.316.308v11.848c0 4.545 1.72 5.892 4.601 5.892 1.347 0 3.457-.812 3.766-.812.174 0 .316.142.316.317v5.843a.982.982 0 0 1-.527.892c-1.275.69-3.433 1.16-6.614 1.16-5.56 0-10.72-2.799-10.72-11.734v-20.58a7.223 7.223 0 0 1 1.842-4.804c1.5-1.623 6.338-4.747 6.954-4.747.276 0 .382.08.382.332v8.35zm-112.12 1.38c0-.574.465-1.04 1.04-1.04h12.22c12.003 0 18.22 7.215 18.22 16.531 0 9.317-6.956 15.8-18.406 15.8h-3.587a.308.308 0 0 0-.308.317v15.119c0 .251-.106.332-.382.332-.625 0-5.453-3.1-6.954-4.755a7.19 7.19 0 0 1-1.843-4.796v-37.509zm22.415 15.029c0-3.96-2.565-7.677-9.333-7.677h-3.595a.316.316 0 0 0-.308.316v14.916c0 .172.136.312.308.317h3.774c8.066-.009 9.154-5.616 9.154-7.872zm75.803 6.297c0 6.809-4.869 10.55-14.436 10.55a41.282 41.282 0 0 1-11.272-1.899 1.063 1.063 0 0 1-.715-.998v-6.338a.39.39 0 0 1 .398-.382h.13c2.037.65 8.643 2.289 12.173 2.289 2.077 0 3.165-.308 3.862-.998a2.159 2.159 0 0 0 .698-1.623c0-2.078-2.605-2.654-5.128-3.246-.317-.073-.179 0-1.031-.236-5.518-1.306-11.361-2.653-11.361-9.738a9.073 9.073 0 0 1 3.798-7.596c2.434-1.818 6.03-2.767 10.298-2.767a37.54 37.54 0 0 1 9.917 1.745c.445.139.752.547.762 1.014v6.33a.398.398 0 0 1-.535.349 32.996 32.996 0 0 0-11.288-2.2c-2.28 0-3.758.99-3.758 2.525 0 1.769 2.159 2.247 4.87 2.856l2.215.503c2.24.487 4.552.99 6.492 2.24 2.63 1.72 3.911 4.212 3.911 7.62zm49.503 9.852a.203.203 0 0 1-.195-.203v-19.257c0-4.277-1.452-6.103-4.869-6.103a8.927 8.927 0 0 0-4.147 1.274c-1.444.812-2.588 1.542-2.994 1.786a.617.617 0 0 0-.236.422v21.91a.203.203 0 0 1-.194.203h-8.61a.203.203 0 0 1-.195-.202v-31.009a.917.917 0 0 1 .925-.917h7.863c.11 0 .199.086.203.195v2.435c0 .148.12.268.268.268a.308.308 0 0 0 .154-.05l.26-.194a15.752 15.752 0 0 1 3.425-1.956 18.827 18.827 0 0 1 6.362-1.29c7.011 0 10.72 4.058 10.72 11.653v20.832c0 .112-.09.203-.203.203h-8.537zm15.857 0a.195.195 0 0 1-.195-.203V127.04c0-.17.04-.227.268-.227.536 0 5.324 3.01 6.874 4.723a7.068 7.068 0 0 1 1.81 4.723v38.222a.195.195 0 0 1-.195.203h-8.562zM116.935 92.209a.974.974 0 0 0-.495.155 20.483 20.483 0 0 0-3.823 3.765.893.893 0 0 0 0 1.225 21.1 21.1 0 0 0 3.571 3.595c.203.177.461.277.73.285.272-.008.532-.109.739-.285a20.466 20.466 0 0 0 3.562-3.595.893.893 0 0 0 0-1.241 20.207 20.207 0 0 0-3.765-3.725c-.16-.11-.35-.172-.544-.179h.025zm0 11.63c-.69 0-1.42 0-2.167.056a.917.917 0 0 0-.698.292c-.244.269-.377.62-.373.982 0 1.485.121 9.317.186 14.307 0 2.435.049 4.155.057 4.212a1.071 1.071 0 0 0 1.055 1.104h3.863a1.063 1.063 0 0 0 1.055-1.112c0-.114.081-6.784.227-18.283v-.228a1.445 1.445 0 0 0-.365-.99.982.982 0 0 0-.714-.284c-.73 0-1.461-.057-2.159-.057h.033zm9.86 1.063a2.142 2.142 0 0 0-2.005 1.347 50.752 50.752 0 0 0-2.727 7.596c-.1.27-.064.572.098.811a.868.868 0 0 0 .738.3h3.035c.462.06.9-.22 1.039-.665a27.51 27.51 0 0 1 1.485-4.058s.057-.105.244-.105a.682.682 0 0 1 .219 0l1.542.511a.625.625 0 0 1 .349.34c.12.255.135.547.04.812 0 .05-3.116 8.716-4.057 11.597-.15.341-.127.735.064 1.055.226.27.577.403.926.349h3.749a1.136 1.136 0 0 0 1.2-.739l.569-1.558.081-.251c1.136-3.149 2.84-7.913 3.246-9.276.617-2.297.812-4.812-2.58-6.062a55.8 55.8 0 0 0-3.027-1.022c-1.185-.366-2.321-.633-3.328-.869h-.121a2.743 2.743 0 0 0-.698-.09l-.081-.023zm-19.72 0a2.67 2.67 0 0 0-.666.08h-.162c-.998.236-2.134.512-3.327.869-.917.284-1.932.625-3.02 1.023-3.367 1.25-3.197 3.765-2.58 6.062.35 1.306 1.94 5.778 3.295 9.527.227.64.422 1.177.552 1.558.186.494.684.798 1.209.738h3.75c.33.032.655-.102.867-.357.19-.318.214-.708.065-1.047-.917-2.848-4.057-11.531-4.057-11.604a1.104 1.104 0 0 1 .048-.812.617.617 0 0 1 .358-.34l1.55-.52a.811.811 0 0 1 .202 0c.155 0 .228.065.244.106.6 1.312 1.1 2.669 1.493 4.057a.941.941 0 0 0 1.03.666h3.044a.86.86 0 0 0 .73-.3.885.885 0 0 0 .098-.812 51.937 51.937 0 0 0-2.727-7.596 2.159 2.159 0 0 0-2.005-1.347l.009.049zm23.68 22.77h-27.592a1.802 1.802 0 0 0-1.777 1.778v3.457c0 1.08.462 1.623 1.42 1.623h28.322c.958 0 1.428-.527 1.428-1.623v-3.473a1.802 1.802 0 0 0-1.785-1.777l-.016.016zm132.91 26.854c0-19.38-36.445-52.944-75.228-74.327-44.747-24.678-95.67-39.22-112.444-29.978-19.119 10.55-29.596 63.21-29.604 104.305 0 41.387 9.876 93.414 29.604 104.296 17.854 9.852 66.545-4.69 112.444-29.97 39.4-21.723 75.196-54.006 75.228-74.326zM89.425 38c28.248 0 73.482 17.853 103.565 34.44a275.64 275.64 0 0 1 51.856 37.42c14.502 13.512 28.2 30.35 28.2 44.666 0 13.495-10.98 29.328-28.614 45.494-14.972 13.706-34.424 27.202-51.45 36.591-29.052 16.02-73.313 34.733-102.527 34.733-7.929 0-14.445-1.38-19.363-4.058-12.944-7.157-21.213-26.35-26.131-45.169C39.702 201.935 37 177.662 37 154.526c0-22.641 2.921-46.979 8.01-66.764 6.2-24.094 15.216-39.983 26.066-45.972C75.636 39.274 81.812 38 89.424 38z"/>
    </defs>
    <g fill="none" fill-rule="evenodd">
        <mask id="b" fill="#fff">
            <use xlink:href="#a"/>
        </mask>
        <use fill="#FFF" fill-rule="nonzero" xlink:href="#a"/>  
        <g fill="#FFF" mask="url(#b)">
            <path d="M0 0h310.565v310H0z"/>
        </g>
    </g>
</svg>
